<svg xmlns="http://www.w3.org/2000/svg" version="1.1" xmlns:xlink="http://www.w3.org/1999/xlink" xmlns:svgjs="http://svgjs.dev/svgjs" viewBox="0 0 800 800"><defs><symbol id="bbburst-shape-6" viewBox="0 0 133 116"><path d="M59.7487 10.2513c-13.6683-13.66839-35.8291-13.66839-49.4974 0-13.66839 13.6683-13.66839 35.8291 0 49.4974l49.4974-49.4974ZM66.5 66.5 41.7513 91.2487 66.5 115.997l24.7487-24.7483L66.5 66.5Zm56.249-6.7513c13.668-13.6683 13.668-35.8291 0-49.4974-13.669-13.66839-35.8294-13.66839-49.4977 0l49.4977 49.4974Zm-112.4977 0 31.5 31.5 49.4974-49.4974-31.5-31.5-49.4974 49.4974Zm80.9974 31.5 31.5003-31.5-49.4977-49.4974-31.5 31.5 49.4974 49.4974Z"></path></symbol><symbol id="bbburst-shape-9" viewBox="0 0 182 172"><path d="M13.5809 69.845 91 13.5967l77.419 56.2483-29.571 91.012H43.1524L13.5809 69.845Z" stroke-width="22"></path></symbol><symbol id="bbburst-shape-10" viewBox="0 0 145 145"><circle cx="72.5" cy="72.5" r="61.5" fill="none" stroke-width="22"></circle></symbol><symbol id="bbburst-shape-11" viewBox="0 0 194 167"><path d="M10.398 161 97 11l86.603 150H10.397Z" stroke-width="11"></path></symbol><symbol id="bbburst-shape-13" viewBox="0 0 159 159"><path stroke-width="22" d="M11 11h137v137H11z"></path></symbol></defs><use xlink:href="#bbburst-shape-6" width="10.406178280566815" opacity="0.9493920947914397" transform="matrix(0.9887563674635814,-0.14953543325989016,0.14953543325989016,0.9887563674635814,312.6282321252314,1.2393229716761311)" fill="#2c2891"></use><use xlink:href="#bbburst-shape-11" width="14.794680053953417" opacity="0.9063463713585562" transform="matrix(0.7911006223172178,0.6116860349634532,-0.6116860349634532,0.7911006223172178,676.0902923274926,98.78151314391164)" fill="none" stroke="#2c2891"></use><use xlink:href="#bbburst-shape-6" width="20.362127578696505" opacity="0.7439073584087459" transform="matrix(0.8434872512985849,0.5371491942624114,-0.5371491942624114,0.8434872512985849,710.3940274252501,106.52524910006571)" fill="#ffbd9b"></use><use xlink:href="#bbburst-shape-11" width="48.29416502921561" opacity="0.21323803670299668" transform="matrix(0.9831291808390821,-0.18291258508554145,0.18291258508554145,0.9831291808390821,-49.22611239748321,-25.44979053462282)" fill="none" stroke="#2c2891"></use><use xlink:href="#bbburst-shape-6" width="43.609011958180886" opacity="0.32691876279301246" transform="matrix(0.9245995451112917,-0.38094052184034255,0.38094052184034255,0.9245995451112917,-50.9226071372193,-80.87055393229042)" fill="#ffbd9b"></use><use xlink:href="#bbburst-shape-13" width="35.4997888000815" opacity="0.33082832540506923" transform="matrix(0.9068065912659138,-0.4215469203264257,0.4215469203264257,0.9068065912659138,-29.15418726872602,220.62012280411403)" fill="none" stroke="#ff5c58"></use><use xlink:href="#bbburst-shape-11" width="27.949359579397388" opacity="0.36468575086906563" transform="matrix(0.9436165965831361,0.33104035804242804,-0.33104035804242804,0.9436165965831361,728.4978294802171,212.49884380445621)" fill="none" stroke="#2c2891"></use><use xlink:href="#bbburst-shape-11" width="41.297652984493766" opacity="-0.07304151173703133" transform="matrix(0.7099963337007218,-0.7042053721262947,0.7042053721262947,0.7099963337007218,444.171930374245,472.15372919815877)" fill="none" stroke="#ffa6d5"></use><use xlink:href="#bbburst-shape-9" width="31.01982178361071" opacity="0.5199537202978908" transform="matrix(0.7289718073012148,0.6845437196848719,-0.6845437196848719,0.7289718073012148,491.01302725819903,228.80662293119678)" fill="none" stroke="#2c2891"></use><use xlink:href="#bbburst-shape-11" width="16.309050783369816" opacity="0.7383551012970716" transform="matrix(0.7624214931100903,0.6470807266823673,-0.6470807266823673,0.7624214931100903,545.778074192758,138.7832638447673)" fill="none" stroke="#00a19d"></use><use xlink:href="#bbburst-shape-10" width="17.33737947410597" opacity="0.7395448523007551" transform="matrix(0.7788541531044482,-0.6272050766630901,0.6272050766630901,0.7788541531044482,251.3066055109536,50.66366353053559)" fill="none" stroke="#00a19d"></use><use xlink:href="#bbburst-shape-13" width="20.394776383506446" opacity="0.5424029875076469" transform="matrix(0.9435801973954911,0.33114409413892,-0.33114409413892,0.9435801973954911,702.3062426019885,120.15036878324156)" fill="none" stroke="#00a19d"></use><use xlink:href="#bbburst-shape-11" width="34.88128084438887" opacity="0.04228887515457003" transform="matrix(0.9641686747938297,0.2652899669160338,-0.2652899669160338,0.9641686747938297,244.47867471120657,363.8694599562875)" fill="none" stroke="#ffbd9b"></use><use xlink:href="#bbburst-shape-10" width="16.50586575111024" opacity="0.7076993017269653" transform="matrix(0.9125792343716846,-0.40889991561944583,0.40889991561944583,0.9125792343716846,171.86633133289047,156.86602597537552)" fill="none" stroke="#ff5c58"></use><use xlink:href="#bbburst-shape-13" width="34.37127099267254" opacity="0.4375913400797705" transform="matrix(0.8160639499125898,-0.5779616160724362,0.5779616160724362,0.8160639499125898,-97.7215780512609,66.50776425954132)" fill="none" stroke="#2c2891"></use><use xlink:href="#bbburst-shape-13" width="16.299248439690015" opacity="0.7284015576607505" transform="matrix(0.885778506427797,0.46410821749947634,-0.46410821749947634,0.885778506427797,658.2133075513005,-50.67507218819219)" fill="none" stroke="#00a19d"></use><use xlink:href="#bbburst-shape-13" width="36.87051835354242" opacity="0.23882103015777323" transform="matrix(0.8243719779120415,0.5660484449527166,-0.5660484449527166,0.8243719779120415,803.4229680597747,343.34005190743414)" fill="none" stroke="#ffa6d5"></use><use xlink:href="#bbburst-shape-10" width="32.29620391680339" opacity="0.08817410587572394" transform="matrix(0.9899613913953843,-0.14133804705922162,0.14133804705922162,0.9899613913953843,117.89823767020438,-346.4625484823434)" fill="none" stroke="#ffa6d5"></use><use xlink:href="#bbburst-shape-13" width="35.53795126222861" opacity="0.5056248318077771" transform="matrix(0.7737513274684885,-0.6334894499837798,0.6334894499837798,0.7737513274684885,32.30374577150917,-96.69237939803719)" fill="none" stroke="#ffa6d5"></use><use xlink:href="#bbburst-shape-10" width="39.92793917258749" opacity="0.27907445377311946" transform="matrix(0.7258061332095046,0.6878993073084656,-0.6878993073084656,0.7258061332095046,843.6015972773503,-171.97728488214045)" fill="none" stroke="#ffbd9b"></use><use xlink:href="#bbburst-shape-11" width="12.912277697393773" opacity="0.8685704998793307" transform="matrix(0.9567234860657783,-0.2909985759589633,0.2909985759589633,0.9567234860657783,315.8200502859078,-25.913554603582668)" fill="none" stroke="#ffa6d5"></use><use xlink:href="#bbburst-shape-6" width="32.151647756889794" opacity="0.4904641875957815" transform="matrix(0.7846459741741115,-0.6199441065228054,0.6199441065228054,0.7846459741741115,362.9494551913886,45.07880543070331)" fill="#00a19d"></use><use xlink:href="#bbburst-shape-13" width="41.78764656788587" opacity="0.1631871076118917" transform="matrix(0.9025478141682525,-0.43058964588121434,0.43058964588121434,0.9025478141682525,338.5018169663264,-305.5855528911012)" fill="none" stroke="#ffbd9b"></use><use xlink:href="#bbburst-shape-6" width="37.66554770173015" opacity="0.3175351139032401" transform="matrix(0.8421334762165291,0.5392691426694693,-0.5392691426694693,0.8421334762165291,305.3747287974902,140.1788190831636)" fill="#ffbd9b"></use><use xlink:href="#bbburst-shape-10" width="39.04909058345478" opacity="0.20712046634607528" transform="matrix(0.9886519772227554,0.15022405910351463,-0.15022405910351463,0.9886519772227554,711.7422752045277,-230.52803128386083)" fill="none" stroke="#00a19d"></use><use xlink:href="#bbburst-shape-9" width="39.769159112502095" opacity="0.21066835133720774" transform="matrix(0.9561635035445334,0.2928333220271271,-0.2928333220271271,0.9561635035445334,518.4429390792207,-343.1664863477262)" fill="none" stroke="#00a19d"></use><use xlink:href="#bbburst-shape-10" width="12.251915520128353" opacity="0.8290051710491908" transform="matrix(0.8790039249867099,-0.47681453402550406,0.47681453402550406,0.8790039249867099,271.83930786898384,87.4270104480305)" fill="none" stroke="#ffa6d5"></use><use xlink:href="#bbburst-shape-10" width="15.658041478965623" opacity="0.8214503054615271" transform="matrix(0.9310943619252751,-0.36477841108125464,0.36477841108125464,0.9310943619252751,317.0640484980053,-8.550283505234404)" fill="none" stroke="#ffa6d5"></use><use xlink:href="#bbburst-shape-11" width="12.412309467334804" opacity="0.9217767434666103" transform="matrix(0.9923208942230606,-0.12369010828819482,0.12369010828819482,0.9923208942230606,351.8110141599115,-30.71917956997447)" fill="none" stroke="#00a19d"></use><use xlink:href="#bbburst-shape-13" width="24.592354013446542" opacity="0.5719946355504244" transform="matrix(0.7082815433916274,0.705930064022474,-0.705930064022474,0.7082815433916274,570.4117978216125,270.59528379913496)" fill="none" stroke="#ffa6d5"></use><use xlink:href="#bbburst-shape-10" width="17.788049369574047" opacity="0.834244760065359" transform="matrix(0.9758842473017901,0.21828865263274339,-0.21828865263274339,0.9758842473017901,459.428363689986,79.77921778685919)" fill="none" stroke="#00a19d"></use><use xlink:href="#bbburst-shape-10" width="36.96672034979417" opacity="0.05839565023657267" transform="matrix(0.8586342802264997,-0.5125886975148016,0.5125886975148016,0.8586342802264997,418.8033919125693,-283.37847458914075)" fill="none" stroke="#ff5c58"></use><use xlink:href="#bbburst-shape-11" width="16.324178960685266" opacity="0.7874410749128391" transform="matrix(0.9833829542536779,-0.18154328762944874,0.18154328762944874,0.9833829542536779,234.61168199922452,-36.50854706450269)" fill="none" stroke="#ffa6d5"></use><use xlink:href="#bbburst-shape-10" width="16.921759614190925" opacity="0.7310790641320122" transform="matrix(0.9925845336479384,-0.12155633904862675,0.12155633904862675,0.9925845336479384,383.243975187626,118.11410228700765)" fill="none" stroke="#00a19d"></use><use xlink:href="#bbburst-shape-10" width="15.253477290420793" opacity="0.8061688142706644" transform="matrix(0.9112280695945683,-0.41190217914324845,0.41190217914324845,0.9112280695945683,265.67095237811327,-40.15744921102913)" fill="none" stroke="#00a19d"></use><use xlink:href="#bbburst-shape-9" width="43.23102713890614" opacity="0.3266206823762198" transform="matrix(0.8983883470293897,0.43920197850396897,-0.43920197850396897,0.8983883470293897,830.7870378739899,-97.67053046254102)" fill="none" stroke="#00a19d"></use><use xlink:href="#bbburst-shape-10" width="31.278927680802244" opacity="0.15706649803427142" transform="matrix(0.9840832322215861,0.17770816542949205,-0.17770816542949205,0.9840832322215861,323.97975218533657,359.3056061615354)" fill="none" stroke="#2c2891"></use><use xlink:href="#bbburst-shape-10" width="21.20122334348577" opacity="0.6307690262244736" transform="matrix(0.9969640993471993,0.07786260086092509,-0.07786260086092509,0.9969640993471993,567.383855403073,-77.42341683375082)" fill="none" stroke="#ffa6d5"></use><use xlink:href="#bbburst-shape-9" width="19.201612478763874" opacity="0.7265627691420118" transform="matrix(0.9675784167556124,0.25257079686436906,-0.25257079686436906,0.9675784167556124,519.1954068275099,-109.53328277855582)" fill="none" stroke="#00a19d"></use><use xlink:href="#bbburst-shape-13" width="30.43188939607604" opacity="0.38399331338970843" transform="matrix(0.7698208104570199,0.6382600722176635,-0.6382600722176635,0.7698208104570199,668.6956678539387,358.42377149891314)" fill="none" stroke="#2c2891"></use><use xlink:href="#bbburst-shape-10" width="20.202661505719615" opacity="0.6384314684194596" transform="matrix(0.9605869514674624,-0.2779796911115038,0.2779796911115038,0.9605869514674624,116.59781933692234,10.533350692048202)" fill="none" stroke="#ff5c58"></use><use xlink:href="#bbburst-shape-13" width="18.484944098117563" opacity="0.6368386601338247" transform="matrix(0.8836330957244596,-0.4681800424413753,0.4681800424413753,0.8836330957244596,362.6140331659692,92.4214697676183)" fill="none" stroke="#ffa6d5"></use><use xlink:href="#bbburst-shape-10" width="17.60714359342851" opacity="0.7674631619076073" transform="matrix(0.8263118924722306,0.5632127984687146,-0.5632127984687146,0.8263118924722306,685.5672895778705,144.42916588480114)" fill="none" stroke="#2c2891"></use><use xlink:href="#bbburst-shape-11" width="25.358016449133448" opacity="0.6338915629924999" transform="matrix(0.9953415475251752,-0.0964116371097878,0.0964116371097878,0.9953415475251752,309.91795158764967,-157.33820697373747)" fill="none" stroke="#00a19d"></use><use xlink:href="#bbburst-shape-6" width="14.654248753530437" opacity="0.7843047788569846" transform="matrix(0.8499120028907965,-0.5269246505356859,0.5269246505356859,0.8499120028907965,123.17054841667917,140.324529127296)" fill="#ffbd9b"></use><use xlink:href="#bbburst-shape-11" width="14.481040890309021" opacity="0.8711373533120134" transform="matrix(0.9757021575545776,0.2191011176223032,-0.2191011176223032,0.9757021575545776,425.6468272662335,-10.513809127761647)" fill="none" stroke="#ffbd9b"></use><use xlink:href="#bbburst-shape-10" width="17.328640601319634" opacity="0.8699662434203723" transform="matrix(0.9332436306820595,0.3592441033494742,-0.3592441033494742,0.9332436306820595,502.4731705342467,-24.637251089960728)" fill="none" stroke="#2c2891"></use><use xlink:href="#bbburst-shape-11" width="33.28353245745957" opacity="0.5322118258787751" transform="matrix(0.933816542693676,0.3577522391147677,-0.3577522391147677,0.933816542693676,335.9357247301699,-66.67542619565597)" fill="none" stroke="#ffa6d5"></use><use xlink:href="#bbburst-shape-10" width="27.59825933427949" opacity="0.5401295549659042" transform="matrix(0.9398795096164402,-0.34150623332987645,0.34150623332987645,0.9398795096164402,261.1420227635681,235.4248552181988)" fill="none" stroke="#2c2891"></use><use xlink:href="#bbburst-shape-11" width="7.735273982868688" opacity="0.9730785152556676" transform="matrix(0.9271960841721077,0.3745763226578926,-0.3745763226578926,0.9271960841721077,546.532719240376,15.468344046315849)" fill="none" stroke="#ffa6d5"></use><use xlink:href="#bbburst-shape-10" width="12.091381872951457" opacity="0.887675920177555" transform="matrix(0.9741303908907861,-0.2259866844373008,0.2259866844373008,0.9741303908907861,255.06782861953945,25.433947472321393)" fill="none" stroke="#2c2891"></use><use xlink:href="#bbburst-shape-11" width="19.930872862409124" opacity="0.6837505236811154" transform="matrix(0.9971185348692482,0.07585926060939423,-0.07585926060939423,0.9971185348692482,290.4043019539738,-57.712935770767956)" fill="none" stroke="#2c2891"></use><use xlink:href="#bbburst-shape-6" width="34.39388666806796" opacity="0.17949332597515966" transform="matrix(0.9322267960967334,0.3618745647862246,-0.3618745647862246,0.9322267960967334,887.1639373800849,-67.69111104711862)" fill="#00a19d"></use><use xlink:href="#bbburst-shape-13" width="17.821280740672915" opacity="0.7493593062001369" transform="matrix(0.7504543900679775,-0.6609222408329892,0.6609222408329892,0.7504543900679775,118.45707877957256,218.00720829667364)" fill="none" stroke="#00a19d"></use><use xlink:href="#bbburst-shape-6" width="35.07319122580713" opacity="0.0647882095686102" transform="matrix(0.97469656652741,-0.2235321077601118,0.2235321077601118,0.97469656652741,510.156151438188,374.8304016641516)" fill="#ffa6d5"></use><use xlink:href="#bbburst-shape-11" width="24.699626309982182" opacity="0.5408886330335174" transform="matrix(0.9410006076516518,0.33840487053117607,-0.33840487053117607,0.9410006076516518,597.1173377426305,212.2926619188745)" fill="none" stroke="#ffbd9b"></use><use xlink:href="#bbburst-shape-11" width="13.461931517995946" opacity="0.8886060551149855" transform="matrix(0.7739252035242598,0.633277016281132,-0.633277016281132,0.7739252035242598,654.3516723773637,135.78288782319424)" fill="none" stroke="#00a19d"></use><use xlink:href="#bbburst-shape-9" width="11.82552401571169" opacity="0.8597160618869087" transform="matrix(0.711379606582017,0.7028079789951269,-0.7028079789951269,0.711379606582017,713.3841710986857,162.80474158781112)" fill="none" stroke="#00a19d"></use><use xlink:href="#bbburst-shape-13" width="55.073502899480935" opacity="0.09874059462648332" transform="matrix(0.8268233172987337,0.5624617337838349,-0.5624617337838349,0.8268233172987337,260.137368707726,271.6495326857033)" fill="none" stroke="#ffa6d5"></use><use xlink:href="#bbburst-shape-13" width="40.86212332534339" opacity="0.4037610912734282" transform="matrix(0.8049219394448252,0.5933807137078027,-0.5933807137078027,0.8049219394448252,474.6610739309293,290.85467605646056)" fill="none" stroke="#00a19d"></use><use xlink:href="#bbburst-shape-9" width="39.50784369857396" opacity="0.18875508154219267" transform="matrix(0.9855832199975454,-0.16919136047467073,0.16919136047467073,0.9855832199975454,44.7494042908787,-238.9697427315509)" fill="none" stroke="#00a19d"></use><use xlink:href="#bbburst-shape-10" width="27.04530613790962" opacity="0.06920780369861312" transform="matrix(0.9999239406928571,0.012333402988133062,-0.012333402988133062,0.9999239406928571,753.57667099598,210.28541124793185)" fill="none" stroke="#ffbd9b"></use><use xlink:href="#bbburst-shape-13" width="30.044258287323174" opacity="0.3873774198119516" transform="matrix(0.8171892355414107,-0.576369459041026,0.576369459041026,0.8171892355414107,403.8081078171025,204.9584698871364)" fill="none" stroke="#ff5c58"></use><use xlink:href="#bbburst-shape-6" width="19.030548337005747" opacity="0.7556598864090247" transform="matrix(0.9896806442721242,0.14329069178810278,-0.14329069178810278,0.9896806442721242,557.7719375867125,6.965950863817625)" fill="#2c2891"></use><use xlink:href="#bbburst-shape-9" width="13.770887405994188" opacity="0.8107890038192529" transform="matrix(0.9812358753597674,-0.1928111949730904,0.1928111949730904,0.9812358753597674,337.1030079180423,91.25635122293488)" fill="none" stroke="#ff5c58"></use><use xlink:href="#bbburst-shape-10" width="18.843690929890084" opacity="0.6510216488045623" transform="matrix(0.977665259748311,0.21016812289514206,-0.21016812289514206,0.977665259748311,557.7176617006314,140.3537237199538)" fill="none" stroke="#00a19d"></use><use xlink:href="#bbburst-shape-13" width="26.937399155004254" opacity="0.4839318439857987" transform="matrix(0.9697126666167307,-0.2442485295822051,0.2442485295822051,0.9697126666167307,231.0534920250727,240.22776412156742)" fill="none" stroke="#00a19d"></use><use xlink:href="#bbburst-shape-6" width="23.260268641397328" opacity="0.7506960501354809" transform="matrix(0.987716899600271,-0.1562540439285597,0.1562540439285597,0.987716899600271,261.89159345443767,-85.32661059047336)" fill="#2c2891"></use><use xlink:href="#bbburst-shape-10" width="22.629807328347365" opacity="0.6140947082416341" transform="matrix(0.9890390358531747,-0.147654277143003,0.147654277143003,0.9890390358531747,355.2089574768206,-165.72558257853217)" fill="none" stroke="#ffa6d5"></use><use xlink:href="#bbburst-shape-13" width="12.047684296931555" opacity="0.9190949908372169" transform="matrix(0.751298308584865,-0.6599627652508291,0.6599627652508291,0.751298308584865,113.89184391808607,135.32815168099262)" fill="none" stroke="#ffa6d5"></use><use xlink:href="#bbburst-shape-10" width="49.00728689910173" opacity="0.4342440166119679" transform="matrix(0.7086868550641757,-0.7055231686197471,0.7055231686197471,0.7086868550641757,73.00997300197758,-119.2966378363383)" fill="none" stroke="#00a19d"></use><use xlink:href="#bbburst-shape-11" width="24.14563747596016" opacity="0.6265233508112815" transform="matrix(0.9826371405006672,0.18553773230443482,-0.18553773230443482,0.9826371405006672,425.5842790513648,168.37982814189348)" fill="none" stroke="#ffbd9b"></use><use xlink:href="#bbburst-shape-11" width="35.522943071232135" opacity="0.07494362637367502" transform="matrix(0.939428548171681,0.34274480722550377,-0.34274480722550377,0.939428548171681,879.1558000479705,-193.71484632768568)" fill="none" stroke="#2c2891"></use><use xlink:href="#bbburst-shape-11" width="25.324803132169876" opacity="0.6597632321622726" transform="matrix(0.8540740837976358,-0.5201513812201491,0.5201513812201491,0.8540740837976358,300.6850026734961,160.1052547339259)" fill="none" stroke="#ffbd9b"></use><use xlink:href="#bbburst-shape-10" width="13.539108303813501" opacity="0.8465423863684538" transform="matrix(0.8964536521222137,0.4431375064206877,-0.4431375064206877,0.8964536521222137,516.9513121062546,81.1653297046849)" fill="none" stroke="#ff5c58"></use><use xlink:href="#bbburst-shape-10" width="12.608875272331598" opacity="0.9193118434813565" transform="matrix(0.9801044383283574,0.19848246766164315,-0.19848246766164315,0.9801044383283574,507.56631036611043,-5.05357064496792)" fill="none" stroke="#00a19d"></use><use xlink:href="#bbburst-shape-6" width="25.780412696825124" opacity="0.6693865266959999" transform="matrix(0.9943786477056922,0.10588250557575084,-0.10588250557575084,0.9943786477056922,319.48211589904594,100.99706167573635)" fill="#ffa6d5"></use><use xlink:href="#bbburst-shape-11" width="29.173183973657977" opacity="0.6086079668049591" transform="matrix(0.8910422520954318,0.45392037295179993,-0.45392037295179993,0.8910422520954318,676.3805088294502,-102.780221852578)" fill="none" stroke="#00a19d"></use><use xlink:href="#bbburst-shape-13" width="36.190736464987054" opacity="0.4168067616165041" transform="matrix(0.8752421152817795,0.48368506244980947,-0.48368506244980947,0.8752421152817795,384.0038407929254,-135.9923507848948)" fill="none" stroke="#00a19d"></use><use xlink:href="#bbburst-shape-13" width="32.125515530978376" opacity="0.47518347424447127" transform="matrix(0.857827381384871,-0.5139379181830964,0.5139379181830964,0.857827381384871,-45.675282418447125,132.60645771658227)" fill="none" stroke="#ffa6d5"></use><use xlink:href="#bbburst-shape-10" width="27.222125065150955" opacity="0.6210591860529083" transform="matrix(0.9803075342584646,-0.1974769309972411,0.1974769309972411,0.9803075342584646,191.0638568043774,-113.86226864094073)" fill="none" stroke="#ffa6d5"></use><use xlink:href="#bbburst-shape-13" width="32.98579987271495" opacity="0.3168748669800777" transform="matrix(0.8064209610032288,-0.5913418923555382,0.5913418923555382,0.8064209610032288,0.47317375445047105,-181.31420951911855)" fill="none" stroke="#00a19d"></use><use xlink:href="#bbburst-shape-6" width="31.097157459040545" opacity="0.5194050960145632" transform="matrix(0.7527497414846311,-0.658306787671843,0.658306787671843,0.7527497414846311,266.3924053118775,272.7587337152836)" fill="#2c2891"></use><use xlink:href="#bbburst-shape-13" width="19.312227206752997" opacity="0.7712574956145077" transform="matrix(0.9231162433821677,0.38452100229245556,-0.38452100229245556,0.9231162433821677,526.4329875499301,-74.22446880671032)" fill="none" stroke="#2c2891"></use><use xlink:href="#bbburst-shape-11" width="28.18234092936896" opacity="0.43627507901054563" transform="matrix(0.707597965847945,0.706615255091376,-0.706615255091376,0.707597965847945,833.8866481267593,-89.32760680027081)" fill="none" stroke="#2c2891"></use><use xlink:href="#bbburst-shape-6" width="28.343012915242006" opacity="0.5115736357435513" transform="matrix(0.8594732382088414,0.5111807437715238,-0.5111807437715238,0.8594732382088414,666.9368541492915,-157.76160358813848)" fill="#00a19d"></use><use xlink:href="#bbburst-shape-10" width="47.72841070693229" opacity="-0.06341168091213167" transform="matrix(0.9623794206799787,-0.27170912876027664,0.27170912876027664,0.9623794206799787,-73.43369498921098,-313.400390204057)" fill="none" stroke="#ff5c58"></use><use xlink:href="#bbburst-shape-9" width="37.62174083343577" opacity="0.36404954330896433" transform="matrix(0.948724151933839,0.3161051779667931,-0.3161051779667931,0.948724151933839,580.3534617050441,-262.73243437180736)" fill="none" stroke="#00a19d"></use><use xlink:href="#bbburst-shape-10" width="47.32264381973722" opacity="-0.0756490932363385" transform="matrix(0.9774127682443067,-0.21133925445359483,0.21133925445359483,0.9774127682443067,-55.8110254514966,350.32311926203414)" fill="none" stroke="#ffa6d5"></use><use xlink:href="#bbburst-shape-11" width="30.572835694739908" opacity="0.1623559334672009" transform="matrix(0.9855593621648147,0.16933027977678333,-0.16933027977678333,0.9855593621648147,87.68192619034375,96.72091218412532)" fill="none" stroke="#2c2891"></use><use xlink:href="#bbburst-shape-11" width="21.36348430511259" opacity="0.6599488346825948" transform="matrix(0.8294959115671086,0.5585127865084663,-0.5585127865084663,0.8294959115671086,635.5735443095994,213.59984401942904)" fill="none" stroke="#ffa6d5"></use><use xlink:href="#bbburst-shape-6" width="21.661985011271916" opacity="0.7876675804883678" transform="matrix(0.8004310282377205,0.5994248652119009,-0.5994248652119009,0.8004310282377205,535.7097829807212,78.84606695614673)" fill="#ffa6d5"></use><use xlink:href="#bbburst-shape-13" width="22.713495479478816" opacity="0.616182445120913" transform="matrix(0.7179090353259422,-0.696136924029587,0.696136924029587,0.7179090353259422,-51.333151542358365,172.67545012799263)" fill="none" stroke="#ffa6d5"></use><use xlink:href="#bbburst-shape-11" width="30.34155912341584" opacity="0.4700951352060787" transform="matrix(0.7103703300261364,0.7038280999069007,-0.7038280999069007,0.7103703300261364,906.3266892743586,143.58871634857013)" fill="none" stroke="#00a19d"></use><use xlink:href="#bbburst-shape-9" width="33.40627198630575" opacity="0.2271361574787405" transform="matrix(0.8762131108325054,0.48192383672653455,-0.48192383672653455,0.8762131108325054,904.6793342639633,161.2512314430477)" fill="none" stroke="#ffbd9b"></use><use xlink:href="#bbburst-shape-6" width="30.60227903574934" opacity="0.16382451785608287" transform="matrix(0.9109368450125219,0.41254583308843706,-0.41254583308843706,0.9109368450125219,833.4764060834286,277.98567375719796)" fill="#ff5c58"></use><use xlink:href="#bbburst-shape-9" width="27.72876378719962" opacity="0.4829951905685248" transform="matrix(0.9824183050792804,0.1866929935620347,-0.1866929935620347,0.9824183050792804,653.9404186715487,-125.8789159031175)" fill="none" stroke="#2c2891"></use><use xlink:href="#bbburst-shape-13" width="11.363281104262988" opacity="0.856252561753351" transform="matrix(0.9645966449764212,-0.2637296200661428,0.2637296200661428,0.9645966449764212,289.9261793305047,-49.02034499346547)" fill="none" stroke="#ffa6d5"></use><use xlink:href="#bbburst-shape-11" width="47.05023410601818" opacity="0.1942631972552883" transform="matrix(0.983687151844888,0.17988770746021623,-0.17988770746021623,0.983687151844888,548.6004896702407,350.3080035464619)" fill="none" stroke="#00a19d"></use><use xlink:href="#bbburst-shape-6" width="31.181913801514035" opacity="0.22380186794762436" transform="matrix(0.9989252987181994,-0.04634919180262162,0.04634919180262162,0.9989252987181994,144.73122874149044,271.5108073597088)" fill="#00a19d"></use><use xlink:href="#bbburst-shape-9" width="37.26479721792795" opacity="0.20465501746114467" transform="matrix(0.9082604105249877,-0.4184053377682708,0.4184053377682708,0.9082604105249877,132.10515883584037,-303.76393688552184)" fill="none" stroke="#ffbd9b"></use><use xlink:href="#bbburst-shape-9" width="41.20990169483135" opacity="0.3372475431327203" transform="matrix(0.8956713385613146,0.44471659883546377,-0.44471659883546377,0.8956713385613146,857.5095897875514,19.308452530043553)" fill="none" stroke="#ffbd9b"></use><use xlink:href="#bbburst-shape-11" width="36.65191301126086" opacity="-0.075483860933107" transform="matrix(0.9559180537171242,-0.29363357195263834,0.29363357195263834,0.9559180537171242,611.183284326508,-315.5286858862884)" fill="none" stroke="#00a19d"></use><use xlink:href="#bbburst-shape-10" width="32.10908323267942" opacity="0.3901039889782466" transform="matrix(0.8622891696655214,-0.5064162199984767,0.5064162199984767,0.8622891696655214,300.0461190779837,311.73523647633937)" fill="none" stroke="#ffa6d5"></use><use xlink:href="#bbburst-shape-11" width="33.08063690108164" opacity="0.32334751056427957" transform="matrix(0.9838089929164602,-0.1792201591805466,0.1792201591805466,0.9838089929164602,235.8136720910254,303.83934981418145)" fill="none" stroke="#ffa6d5"></use><use xlink:href="#bbburst-shape-13" width="17.529085763229645" opacity="0.849681404977781" transform="matrix(0.8343576791664508,0.5512234240450726,-0.5512234240450726,0.8343576791664508,680.8194566808509,61.162768275721874)" fill="none" stroke="#00a19d"></use><use xlink:href="#bbburst-shape-13" width="36.15095576742729" opacity="0.19826615589640117" transform="matrix(0.9402856661041238,0.34038634831485864,-0.34038634831485864,0.9402856661041238,512.0558870151847,378.443390751164)" fill="none" stroke="#ffa6d5"></use><use xlink:href="#bbburst-shape-10" width="28.407608696670984" opacity="0.6298459048959619" transform="matrix(0.9613387818516188,0.2753683832760139,-0.2753683832760139,0.9613387818516188,662.4568177846958,-2.6331982937161342)" fill="none" stroke="#2c2891"></use><use xlink:href="#bbburst-shape-10" width="12.998698660511893" opacity="0.959363546316224" transform="matrix(0.9529585546632883,-0.3031006319591839,0.3031006319591839,0.9529585546632883,281.92141266700105,36.49867625077877)" fill="none" stroke="#ffbd9b"></use><use xlink:href="#bbburst-shape-11" width="49.40919902295418" opacity="0.10784905940273026" transform="matrix(0.9405558647029431,-0.33963902215867225,0.33963902215867225,0.9405558647029431,-116.77975269859064,-151.1609229373253)" fill="none" stroke="#2c2891"></use><use xlink:href="#bbburst-shape-9" width="33.62352734558822" opacity="0.18674909589773203" transform="matrix(0.9984221661023013,-0.05615316763628429,0.05615316763628429,0.9984221661023013,724.5851455991105,40.6697825988806)" fill="none" stroke="#2c2891"></use></svg>